<svg width="25" height="25" viewBox="0 0 25 25" fill="none" xmlns="http://www.w3.org/2000/svg">
<path d="M12.9025 7.6875C12.0125 7.6875 11.1424 7.95142 10.4024 8.44589C9.66238 8.94035 9.0856 9.64316 8.74501 10.4654C8.40441 11.2877 8.3153 12.1925 8.48893 13.0654C8.66257 13.9383 9.09115 14.7401 9.72049 15.3695C10.3498 15.9988 11.1516 16.4274 12.0246 16.601C12.8975 16.7747 13.8023 16.6856 14.6245 16.345C15.4468 16.0044 16.1496 15.4276 16.6441 14.6876C17.1385 13.9475 17.4025 13.0775 17.4025 12.1875C17.4012 10.9944 16.9267 9.85053 16.0831 9.00689C15.2394 8.16325 14.0956 7.68874 12.9025 7.6875ZM12.9025 15.1875C12.3091 15.1875 11.7291 15.0116 11.2358 14.6819C10.7424 14.3523 10.3579 13.8837 10.1308 13.3356C9.90376 12.7874 9.84435 12.1842 9.96011 11.6022C10.0759 11.0203 10.3616 10.4857 10.7811 10.0662C11.2007 9.64662 11.7353 9.3609 12.3172 9.24514C12.8991 9.12939 13.5023 9.1888 14.0505 9.41586C14.5987 9.64292 15.0672 10.0274 15.3969 10.5208C15.7265 11.0141 15.9025 11.5942 15.9025 12.1875C15.9025 12.9831 15.5864 13.7462 15.0238 14.3088C14.4612 14.8714 13.6981 15.1875 12.9025 15.1875ZM17.4025 2.4375H8.40247C7.01054 2.43899 5.67604 2.99259 4.6918 3.97683C3.70756 4.96108 3.15395 6.29557 3.15247 7.6875V16.6875C3.15395 18.0794 3.70756 19.4139 4.6918 20.3982C5.67604 21.3824 7.01054 21.936 8.40247 21.9375H17.4025C18.7944 21.936 20.1289 21.3824 21.1131 20.3982C22.0974 19.4139 22.651 18.0794 22.6525 16.6875V7.6875C22.651 6.29557 22.0974 4.96108 21.1131 3.97683C20.1289 2.99259 18.7944 2.43899 17.4025 2.4375ZM21.1525 16.6875C21.1525 17.6821 20.7574 18.6359 20.0541 19.3391C19.3509 20.0424 18.397 20.4375 17.4025 20.4375H8.40247C7.4079 20.4375 6.45408 20.0424 5.75082 19.3391C5.04755 18.6359 4.65247 17.6821 4.65247 16.6875V7.6875C4.65247 6.69294 5.04755 5.73911 5.75082 5.03585C6.45408 4.33259 7.4079 3.9375 8.40247 3.9375H17.4025C18.397 3.9375 19.3509 4.33259 20.0541 5.03585C20.7574 5.73911 21.1525 6.69294 21.1525 7.6875V16.6875ZM18.9025 7.3125C18.9025 7.535 18.8365 7.75251 18.7129 7.93752C18.5893 8.12252 18.4136 8.26672 18.208 8.35186C18.0024 8.43701 17.7762 8.45929 17.558 8.41588C17.3398 8.37248 17.1393 8.26533 16.982 8.108C16.8246 7.95066 16.7175 7.75021 16.6741 7.53198C16.6307 7.31375 16.653 7.08755 16.7381 6.88198C16.8233 6.67641 16.9674 6.50071 17.1524 6.3771C17.3375 6.25348 17.555 6.1875 17.7775 6.1875C18.0758 6.1875 18.362 6.30603 18.573 6.517C18.7839 6.72798 18.9025 7.01413 18.9025 7.3125Z" fill="#217BCF"/>
</svg>
