<svg width="48" height="49" viewBox="0 0 48 49" fill="none" xmlns="http://www.w3.org/2000/svg">
<path d="M47.6812 20.4207L42.8962 10.8469C42.72 10.4945 42.476 10.1803 42.1783 9.92225C41.8806 9.66417 41.5349 9.46726 41.1611 9.34277C40.7873 9.21827 40.3926 9.16864 39.9996 9.1967C39.6066 9.22475 39.223 9.32995 38.8706 9.50628L34.2075 11.8369L24.3844 9.23816C24.1323 9.17257 23.8677 9.17257 23.6156 9.23816L13.7925 11.8369L9.12935 9.50628C8.77701 9.32995 8.39338 9.22475 8.00037 9.1967C7.60736 9.16864 7.21268 9.21827 6.83886 9.34277C6.46503 9.46726 6.1194 9.66417 5.82168 9.92225C5.52397 10.1803 5.28 10.4945 5.10373 10.8469L0.318729 20.4188C0.142397 20.7711 0.0371983 21.1548 0.0091417 21.5478C-0.0189149 21.9408 0.0307198 22.3355 0.155211 22.7093C0.279703 23.0831 0.476612 23.4287 0.734695 23.7265C0.992778 24.0242 1.30698 24.2681 1.65935 24.4444L6.72185 26.9775L17.1262 34.4082C17.2795 34.5172 17.4519 34.5967 17.6344 34.6425L29.6344 37.6425C29.8857 37.7056 30.149 37.7024 30.3987 37.6334C30.6485 37.5644 30.8761 37.4319 31.0594 37.2488L41.385 26.9213L46.3387 24.4444C47.0499 24.0884 47.5906 23.4646 47.842 22.7101C48.0934 21.9555 48.0349 21.1321 47.6794 20.4207H47.6812ZM37.3894 26.6775L30.9375 21.51C30.6484 21.2786 30.284 21.1622 29.9143 21.1833C29.5446 21.2044 29.1958 21.3615 28.935 21.6244C25.5956 24.9882 21.8737 24.5625 19.5 23.0625L27.6075 15.1875H33.5719L38.6737 25.3894L37.3894 26.6775ZM7.78685 12.1875L11.625 14.1038L6.8306 23.6757L2.99998 21.7613L7.78685 12.1875ZM29.5369 34.5244L18.6412 31.8019L9.41623 25.2132L14.6662 14.7132L24 12.24L25.8375 12.7257L17.4 20.9157L17.385 20.9325C17.0674 21.2501 16.8251 21.635 16.6761 22.0588C16.5271 22.4825 16.4752 22.9343 16.5242 23.3808C16.5731 23.8273 16.7217 24.2571 16.959 24.6385C17.1962 25.0199 17.5161 25.3432 17.895 25.5844C21.75 28.0463 26.4019 27.6469 30.0656 24.6469L35.25 28.8113L29.5369 34.5244ZM41.1619 23.6738L36.3769 14.1113L40.2131 12.1875L45 21.7613L41.1619 23.6738ZM24.7087 41.0494C24.6277 41.3736 24.4407 41.6615 24.1775 41.8673C23.9142 42.0731 23.5898 42.1852 23.2556 42.1857C23.1324 42.1855 23.0096 42.1704 22.89 42.1407L15.0769 40.1869C14.8941 40.1418 14.7217 40.0623 14.5687 39.9525L9.6281 36.4238C9.32432 36.1853 9.12425 35.8388 9.06955 35.4564C9.01485 35.0741 9.10974 34.6854 9.33447 34.3712C9.55919 34.0571 9.89642 33.8418 10.2759 33.7701C10.6555 33.6984 11.048 33.7758 11.3719 33.9863L16.08 37.35L23.625 39.2325C24.0108 39.3291 24.3426 39.5749 24.5472 39.916C24.7518 40.257 24.8126 40.6654 24.7162 41.0513L24.7087 41.0494Z" fill="#FAFAFA"/>
</svg>
