<svg width="24" height="25" viewBox="0 0 24 25" fill="none" xmlns="http://www.w3.org/2000/svg">
<g clip-path="url(#clip0_132_3561)">
<mask id="mask0_132_3561" style="mask-type:luminance" maskUnits="userSpaceOnUse" x="0" y="0" width="24" height="25">
<path d="M24 0.1875H0V24.1875H24V0.1875Z" fill="white"/>
</mask>
<g mask="url(#mask0_132_3561)">
<path d="M11.9132 5.2462L6.82701 0.309651C6.7655 0.24994 6.66345 0.268702 6.62721 0.346392L5.64732 2.44615C5.62514 2.49367 5.63505 2.54996 5.67213 2.58703L11.9118 8.82674C11.9605 8.87542 12.0395 8.87542 12.0882 8.82674L18.3279 2.58703C18.365 2.54996 18.3748 2.49367 18.3527 2.44615L17.3727 0.346392C17.3366 0.268702 17.2345 0.24994 17.1729 0.309651L12.0868 5.2462C12.0385 5.29316 11.9615 5.29316 11.9132 5.2462Z" fill="#39485A"/>
<path d="M23.8412 6.81483L21.7415 5.83495C21.694 5.81277 21.6377 5.82268 21.6006 5.85976L15.3609 12.0995C15.3122 12.1481 15.3122 12.2271 15.3609 12.2758L21.6006 18.5155C21.6377 18.5526 21.694 18.5624 21.7415 18.5403L23.8412 17.5604C23.919 17.5242 23.9377 17.4221 23.878 17.3606L18.9415 12.2745C18.8945 12.2261 18.8945 12.1492 18.9415 12.1008L23.878 7.01464C23.9377 6.95313 23.919 6.85108 23.8412 6.81483Z" fill="#39485A"/>
<path d="M12.0882 15.5487L18.3279 21.7885C18.365 21.8255 18.3748 21.8818 18.3527 21.9293L17.3727 24.029C17.3366 24.1068 17.2345 24.1255 17.1729 24.0658L12.0868 19.1293C12.0385 19.0824 11.9615 19.0824 11.9132 19.1293L6.82701 24.0658C6.7655 24.1255 6.66345 24.1068 6.62721 24.029L5.64732 21.9293C5.62514 21.8818 5.63505 21.8255 5.67213 21.7885L11.9118 15.5487C11.9605 15.5 12.0395 15.5 12.0882 15.5487Z" fill="#39485A"/>
<path d="M8.63911 12.2758L2.39941 18.5155C2.36233 18.5526 2.30604 18.5624 2.25852 18.5403L0.158762 17.5604C0.0810726 17.5242 0.0623104 17.4221 0.122022 17.3606L5.05857 12.2745C5.10553 12.2261 5.10553 12.1492 5.05857 12.1008L0.122022 7.01464C0.0623102 6.95313 0.0810728 6.85108 0.158762 6.81483L2.25852 5.83495C2.30604 5.81277 2.36233 5.82268 2.39941 5.85976L8.63911 12.0995C8.68779 12.1481 8.68779 12.2271 8.63911 12.2758Z" fill="#39485A"/>
<path d="M4.74397 3.39149L3.20428 4.93119C3.15589 4.97958 3.15555 5.05794 3.20352 5.10673L11.9111 13.9671C11.9599 14.0168 12.0401 14.0168 12.0889 13.9671L20.7965 5.10673C20.8445 5.05794 20.8442 4.97958 20.7957 4.93119L19.2561 3.39149C19.2078 3.34318 19.1296 3.34276 19.0806 3.39053L12.0872 10.232C12.0387 10.2794 11.9613 10.2794 11.9128 10.232L4.91931 3.39053C4.87047 3.34276 4.79229 3.34318 4.74397 3.39149Z" fill="#39485A"/>
<path d="M14.4095 13.0507L12.8632 14.597C12.8162 14.644 12.8143 14.7197 12.859 14.769L18.7692 21.2854C18.8171 21.338 18.8994 21.3401 18.9497 21.2897L21.1022 19.1372C21.1526 19.0869 21.1505 19.0046 21.0979 18.9567L14.5815 13.0465C14.5322 13.0018 14.4566 13.0037 14.4095 13.0507Z" fill="#39485A"/>
<path d="M11.1368 14.597L9.59046 13.0507C9.54344 13.0037 9.4678 13.0018 9.41854 13.0465L2.90216 18.9567C2.84939 19.0046 2.84738 19.0869 2.89777 19.1372L5.05029 21.2897C5.10067 21.3401 5.18294 21.338 5.2308 21.2854L11.141 14.769C11.1857 14.7197 11.1838 14.644 11.1368 14.597Z" fill="#39485A"/>
</g>
</g>
<defs>
<clipPath id="clip0_132_3561">
<rect width="24" height="24" fill="white" transform="translate(0 0.1875)"/>
</clipPath>
</defs>
</svg>
