<svg width="68" height="55" viewBox="0 0 68 55" fill="none" xmlns="http://www.w3.org/2000/svg">
<mask id="mask0_272_3065" style="mask-type:luminance" maskUnits="userSpaceOnUse" x="12" y="25" width="30" height="27">
<path d="M12 25.3334H41.3333V52H12V25.3334Z" fill="white"/>
</mask>
<g mask="url(#mask0_272_3065)">
<mask id="mask1_272_3065" style="mask-type:luminance" maskUnits="userSpaceOnUse" x="0" y="-7" width="73" height="72">
<path d="M59.6041 64.9896L0.901001 52.5782L13.3125 -6.12494L72.0156 6.28652L59.6041 64.9896Z" fill="white"/>
</mask>
<g mask="url(#mask1_272_3065)">
<mask id="mask2_272_3065" style="mask-type:luminance" maskUnits="userSpaceOnUse" x="0" y="-7" width="73" height="72">
<path d="M59.6041 64.9896L0.901001 52.5782L13.3125 -6.12494L72.0156 6.28652L59.6041 64.9896Z" fill="white"/>
</mask>
<g mask="url(#mask2_272_3065)">
<path d="M40.625 26.6771C40.625 26.6719 40.625 26.6719 40.625 26.6719C40.3906 26.3178 39.9531 25.9792 39.3594 25.9844C39.2708 25.9844 16.3698 27.5001 14.4948 27.6251C14.401 27.6303 14.3125 27.6407 14.2239 27.6719C13.5781 27.8646 13.2604 28.3959 13.1771 28.8542C13.1042 29.2657 13.1875 29.7865 13.5781 30.1876C13.6666 30.2761 23.6719 37.7084 23.6719 37.7084V37.7136C23.6719 37.7136 26.4219 49.8699 26.4687 49.9844C26.6719 50.5053 27.1198 50.7917 27.5208 50.8907C27.9739 51.0001 28.5937 50.9271 29.026 50.4167C29.0885 50.349 29.1406 50.2657 29.1823 50.1824C30.0521 48.5209 40.7135 28.1928 40.7448 28.1146C40.9896 27.5782 40.8594 27.0313 40.625 26.6771Z" fill="#F8F8F8"/>
</g>
</g>
</g>
<mask id="mask3_272_3065" style="mask-type:luminance" maskUnits="userSpaceOnUse" x="14" y="38" width="8" height="6">
<path d="M14.6666 38.6666H21.3333V44H14.6666V38.6666Z" fill="white"/>
</mask>
<g mask="url(#mask3_272_3065)">
<mask id="mask4_272_3065" style="mask-type:luminance" maskUnits="userSpaceOnUse" x="0" y="-7" width="73" height="72">
<path d="M59.6041 64.9896L0.901001 52.5781L13.3125 -6.125L72.0156 6.28646L59.6041 64.9896Z" fill="white"/>
</mask>
<g mask="url(#mask4_272_3065)">
<mask id="mask5_272_3065" style="mask-type:luminance" maskUnits="userSpaceOnUse" x="0" y="-7" width="73" height="72">
<path d="M59.6041 64.9896L0.901001 52.5781L13.3125 -6.125L72.0156 6.28646L59.6041 64.9896Z" fill="white"/>
</mask>
<g mask="url(#mask5_272_3065)">
<path d="M18.3385 39.3646L18.1406 39.4948C18.1042 39.5157 18.0729 39.5365 18.0417 39.5625C18.0052 39.5782 17.974 39.599 17.9375 39.625L17.7396 39.7552C17.7083 39.7761 17.6771 39.7969 17.6458 39.8229C17.6094 39.8386 17.5729 39.8594 17.5417 39.8854L17.3438 40.0157C17.3073 40.0365 17.276 40.0573 17.2448 40.0834C17.2083 40.099 17.1771 40.1198 17.1406 40.1407L16.9427 40.2709C16.9063 40.2969 16.875 40.3177 16.8438 40.3438C16.8073 40.3594 16.776 40.3802 16.7396 40.4011L16.5417 40.5313C15.8385 40.9896 15.6354 41.9375 16.0938 42.6407C16.5573 43.349 17.5 43.5469 18.2083 43.0886L18.4063 42.9584C18.4375 42.9375 18.474 42.9115 18.5052 42.8907C18.5365 42.8698 18.5729 42.849 18.6042 42.8282L18.8073 42.6979C18.8385 42.6771 18.8698 42.6563 18.901 42.6302C18.9375 42.6094 18.9688 42.5886 19.0052 42.5677L19.2031 42.4375C19.2396 42.4167 19.2708 42.3959 19.3021 42.3698C19.3386 42.349 19.3698 42.3282 19.4063 42.3073L19.6042 42.1771C19.6354 42.1563 19.6719 42.1354 19.7031 42.1094C19.7344 42.0886 19.7708 42.0677 19.8021 42.0469L20.0052 41.9167C20.7083 41.4584 20.9115 40.5157 20.4479 39.8073C19.9896 39.1042 19.0469 38.9063 18.3385 39.3646Z" fill="#F8F8F8"/>
</g>
</g>
</g>
<mask id="mask6_272_3065" style="mask-type:luminance" maskUnits="userSpaceOnUse" x="8" y="42" width="7" height="8">
<path d="M8 42.6666H14.6667V49.3333H8V42.6666Z" fill="white"/>
</mask>
<g mask="url(#mask6_272_3065)">
<mask id="mask7_272_3065" style="mask-type:luminance" maskUnits="userSpaceOnUse" x="0" y="-7" width="73" height="72">
<path d="M59.6041 64.9896L0.901001 52.5781L13.3125 -6.125L72.0156 6.28646L59.6041 64.9896Z" fill="white"/>
</mask>
<g mask="url(#mask7_272_3065)">
<mask id="mask8_272_3065" style="mask-type:luminance" maskUnits="userSpaceOnUse" x="0" y="-7" width="73" height="72">
<path d="M59.6041 64.9896L0.901001 52.5781L13.3125 -6.125L72.0156 6.28646L59.6041 64.9896Z" fill="white"/>
</mask>
<g mask="url(#mask8_272_3065)">
<path d="M10.9271 47.8281L11.125 47.6979C11.1563 47.6771 11.1927 47.651 11.224 47.6302C11.2604 47.6094 11.2917 47.5885 11.3281 47.5677L11.5261 47.4375C11.5573 47.4167 11.5886 47.3958 11.625 47.3698C11.6563 47.349 11.6927 47.3281 11.724 47.3073L11.9219 47.1771C11.9584 47.1563 11.9896 47.1354 12.0209 47.1094C12.0573 47.0885 12.0886 47.0677 12.125 47.0469L12.3229 46.9167C12.3542 46.8958 12.3906 46.875 12.4219 46.849C12.4531 46.8281 12.4896 46.8073 12.5209 46.7865L12.724 46.6563C13.4271 46.1979 13.6302 45.2552 13.1667 44.5469C12.7084 43.8438 11.7656 43.6458 11.0573 44.1042L10.8594 44.2344C10.8229 44.2552 10.7917 44.276 10.7604 44.3021C10.7292 44.3177 10.6927 44.3385 10.6615 44.3646L10.4584 44.4948C10.4271 44.5156 10.3959 44.5365 10.3646 44.5625C10.3281 44.5781 10.2917 44.599 10.2604 44.625L10.0625 44.7552C10.0261 44.7708 9.99481 44.7969 9.96356 44.8229C9.9271 44.8385 9.89585 44.8594 9.85939 44.8802L9.66148 45.0104C9.62502 45.0313 9.59377 45.0573 9.56252 45.0833C9.53127 45.099 9.49481 45.1198 9.46356 45.1406L9.26564 45.2708C8.55731 45.7292 8.35939 46.6719 8.81773 47.3802C9.27606 48.0885 10.2188 48.2865 10.9271 47.8281Z" fill="#F8F8F8"/>
</g>
</g>
</g>
<mask id="mask9_272_3065" style="mask-type:luminance" maskUnits="userSpaceOnUse" x="0" y="48" width="7" height="6">
<path d="M0 48H6.66667V53.3333H0V48Z" fill="white"/>
</mask>
<g mask="url(#mask9_272_3065)">
<mask id="mask10_272_3065" style="mask-type:luminance" maskUnits="userSpaceOnUse" x="0" y="-7" width="73" height="72">
<path d="M59.6041 64.9896L0.901001 52.5781L13.3125 -6.125L72.0156 6.28646L59.6041 64.9896Z" fill="white"/>
</mask>
<g mask="url(#mask10_272_3065)">
<mask id="mask11_272_3065" style="mask-type:luminance" maskUnits="userSpaceOnUse" x="0" y="-7" width="73" height="72">
<path d="M59.6041 64.9896L0.901001 52.5781L13.3125 -6.125L72.0156 6.28646L59.6041 64.9896Z" fill="white"/>
</mask>
<g mask="url(#mask11_272_3065)">
<path d="M1.53648 52.1198C1.99481 52.8281 2.93752 53.026 3.64585 52.5677L3.84377 52.4375C3.88023 52.4166 3.91148 52.3906 3.94273 52.3698C3.97919 52.3489 4.01043 52.3281 4.04689 52.3073L4.24481 52.1771C4.27606 52.1562 4.31252 52.1302 4.34377 52.1093C4.37502 52.0885 4.41148 52.0677 4.44273 52.0468L4.64585 51.9166C4.6771 51.8958 4.70835 51.8698 4.7396 51.8489C4.77606 51.8281 4.80731 51.8073 4.84377 51.7864L5.04169 51.6562C5.07814 51.6354 5.10939 51.6093 5.14064 51.5885C5.1771 51.5677 5.20835 51.5468 5.24481 51.526L5.44273 51.3958C6.15106 50.9375 6.34898 49.9896 5.88544 49.2864C5.4271 48.5833 4.48439 48.3802 3.78127 48.8385L3.57814 48.9687C3.54689 48.9948 3.51043 49.0156 3.48439 49.0364C3.44794 49.0573 3.41148 49.0781 3.38023 49.0989L3.18231 49.2343C3.14585 49.25 3.1146 49.276 3.08335 49.2968C3.04689 49.3177 3.01043 49.3385 2.97919 49.3646L2.78127 49.4896C2.74481 49.5104 2.71356 49.5364 2.68231 49.5625C2.65106 49.5781 2.6146 49.5989 2.58335 49.6198L2.38023 49.75C2.34898 49.7708 2.31252 49.7968 2.28127 49.8229C2.25002 49.8385 2.21356 49.8593 2.18231 49.8802L1.98439 50.0104C1.27606 50.4687 1.07814 51.4114 1.53648 52.1198Z" fill="#F8F8F8"/>
</g>
</g>
</g>
<mask id="mask12_272_3065" style="mask-type:luminance" maskUnits="userSpaceOnUse" x="13" y="0" width="55" height="55">
<path d="M13.3333 0H67.9999V54.6667H13.3333V0Z" fill="white"/>
</mask>
<g mask="url(#mask12_272_3065)">
<mask id="mask13_272_3065" style="mask-type:luminance" maskUnits="userSpaceOnUse" x="0" y="-7" width="73" height="72">
<path d="M59.6041 64.9896L0.901001 52.5781L13.3125 -6.125L72.0156 6.28646L59.6041 64.9896Z" fill="white"/>
</mask>
<g mask="url(#mask13_272_3065)">
<mask id="mask14_272_3065" style="mask-type:luminance" maskUnits="userSpaceOnUse" x="0" y="-7" width="73" height="72">
<path d="M59.6041 64.9896L0.901001 52.5781L13.3125 -6.125L72.0156 6.28646L59.6041 64.9896Z" fill="white"/>
</mask>
<g mask="url(#mask14_272_3065)">
<path d="M14.2864 24.4218L14.8958 24.3854C17.1978 24.2291 19.2812 24.0937 21.1718 23.9687C21.2291 23.5729 21.302 23.177 21.3853 22.7812C23.5989 12.302 33.927 5.57808 44.4062 7.79162C54.8801 10.0104 61.6041 20.3385 59.3905 30.8125C57.1718 41.2916 46.8489 48.0156 36.3697 45.7968C35.9895 45.7187 35.6145 45.625 35.2447 45.526C34.2864 47.3593 33.2135 49.401 32.026 51.6718C31.953 51.8073 31.8801 51.9323 31.802 52.052C32.7968 52.3906 33.8176 52.6718 34.8697 52.8906C49.2603 55.9323 63.4374 46.7031 66.4791 32.3125C69.526 17.927 60.2968 3.74475 45.9062 0.703083C31.5155 -2.33858 17.3333 6.89058 14.2916 21.2812C14.0676 22.3489 13.9062 23.4166 13.8176 24.4791C13.9687 24.4531 14.1249 24.4323 14.2864 24.4218Z" fill="#F8F8F8"/>
</g>
</g>
</g>
<mask id="mask15_272_3065" style="mask-type:luminance" maskUnits="userSpaceOnUse" x="28" y="13" width="26" height="27">
<path d="M28 13.3334H53.3333V40H28V13.3334Z" fill="white"/>
</mask>
<g mask="url(#mask15_272_3065)">
<mask id="mask16_272_3065" style="mask-type:luminance" maskUnits="userSpaceOnUse" x="0" y="-7" width="73" height="72">
<path d="M59.6041 64.9896L0.901001 52.5782L13.3125 -6.12494L72.0156 6.28652L59.6041 64.9896Z" fill="white"/>
</mask>
<g mask="url(#mask16_272_3065)">
<mask id="mask17_272_3065" style="mask-type:luminance" maskUnits="userSpaceOnUse" x="0" y="-7" width="73" height="72">
<path d="M59.6041 64.9896L0.901001 52.5782L13.3125 -6.12494L72.0156 6.28652L59.6041 64.9896Z" fill="white"/>
</mask>
<g mask="url(#mask17_272_3065)">
<path d="M42.4843 31.7136C41.7395 33.1303 40.526 35.448 38.5312 39.2553C45.0625 40.2292 51.3281 35.948 52.7135 29.4011C54.1458 22.6094 49.7864 15.9115 42.9948 14.474C36.4323 13.0886 29.9583 17.1042 28.2291 23.5001C32.4739 23.2188 35.0781 23.0469 36.6823 22.9428C37.9218 21.7605 39.6979 21.1876 41.4948 21.5678C44.375 22.1771 46.2291 25.0157 45.6198 27.9011C45.2448 29.6719 44.0312 31.0521 42.4843 31.7136Z" fill="#F8F8F8"/>
</g>
</g>
</g>
</svg>
