<svg width="389" height="88" viewBox="0 0 389 88" fill="none" xmlns="http://www.w3.org/2000/svg">
<path d="M29.4161 87.0201H25.6661L23.9786 75.8534L18.8744 86.9992H17.9577L12.8536 75.8534L11.1661 87.0201H7.37439L10.0619 69.9159H13.7911L18.3952 80.3951L23.0411 69.9159H26.7494L29.4161 87.0201Z" fill="#217BCF"/>
<path d="M50.1353 87.0201L48.9478 83.7701H42.1353L40.9478 87.0201H37.052L43.7395 69.9159H47.2395L54.1562 87.0201H50.1353ZM45.5312 74.4367L43.302 80.5409H47.7812L45.5312 74.4367Z" fill="#217BCF"/>
<path d="M72.2205 87.0201L68.908 81.1867H66.533V87.0201H62.8247V69.9159H69.7414C70.8768 69.9159 71.8924 70.1607 72.783 70.6451C73.6841 71.1346 74.3924 71.8013 74.908 72.6451C75.4341 73.494 75.6997 74.4732 75.6997 75.5826C75.6997 76.6971 75.4132 77.6867 74.8455 78.5617C74.2882 79.4263 73.5382 80.0826 72.5955 80.5409L76.3872 87.0201H72.2205ZM66.533 73.3326V77.7492H69.4914C70.2518 77.7492 70.856 77.5513 71.3039 77.1451C71.7466 76.7284 71.9705 76.2024 71.9705 75.5617C71.9705 74.9107 71.7466 74.3742 71.3039 73.9576C70.856 73.5409 70.2518 73.3326 69.4914 73.3326H66.533Z" fill="#217BCF"/>
<path d="M99.7464 87.0201H95.2256L89.1839 78.6659V87.0201H85.4756V69.9159H89.1839V77.8117L94.7881 69.9159H99.1006L93.2673 78.1034L99.7464 87.0201Z" fill="#217BCF"/>
<path d="M111.713 83.5826H118.525V87.0201H108.004V69.9159H118.275V73.3326H111.713V76.7076H117.629V80.0617H111.713V83.5826Z" fill="#217BCF"/>
<path d="M139.955 69.9159V73.3534H135.205V87.0201H131.476V73.3534H126.746V69.9159H139.955Z" fill="#217BCF"/>
<path d="M148.932 87.0201V69.9159H152.641V87.0201H148.932Z" fill="#217BCF"/>
<path d="M173.91 69.9159H177.514V87.0201H174.431L166.701 76.3326V87.0201H163.056V69.9159H166.41L173.91 80.3534V69.9159Z" fill="#217BCF"/>
<path d="M195.43 78.0826H204.534C204.519 79.4315 204.295 80.6763 203.868 81.8117C203.451 82.9367 202.852 83.9159 202.076 84.7492C201.31 85.5826 200.394 86.2388 199.326 86.7076C198.253 87.1659 197.081 87.3951 195.805 87.3951C194.539 87.3951 193.368 87.1711 192.284 86.7284C191.211 86.2857 190.274 85.6659 189.472 84.8742C188.664 84.0721 188.039 83.1242 187.597 82.0409C187.164 80.9471 186.951 79.7649 186.951 78.4992C186.951 77.2076 187.164 76.0201 187.597 74.9367C188.024 73.8534 188.638 72.9107 189.43 72.1034C190.222 71.3013 191.149 70.6763 192.222 70.2284C193.305 69.7701 194.472 69.5409 195.722 69.5409C197.138 69.5409 198.451 69.8221 199.659 70.3742C200.868 70.9315 201.873 71.7024 202.68 72.6867C203.498 73.6607 204.039 74.7857 204.305 76.0617H200.493C200.128 75.1451 199.524 74.4159 198.68 73.8742C197.831 73.3326 196.873 73.0617 195.805 73.0617C194.789 73.0617 193.899 73.3013 193.138 73.7701C192.373 74.2284 191.769 74.8638 191.326 75.6659C190.894 76.4732 190.68 77.4159 190.68 78.4992C190.68 79.5565 190.888 80.4888 191.305 81.2909C191.732 82.0982 192.331 82.7284 193.097 83.1867C193.873 83.6451 194.774 83.8742 195.805 83.8742C196.899 83.8742 197.888 83.6034 198.763 83.0617C199.649 82.5201 200.248 81.8117 200.555 80.9367H195.43V78.0826Z" fill="#217BCF"/>
<path d="M229.952 83.5826H236.764V87.0201H226.244V69.9159H236.514V73.3326H229.952V76.7076H235.869V80.0617H229.952V83.5826Z" fill="#217BCF"/>
<path d="M266.242 78.0826H275.346C275.33 79.4315 275.106 80.6763 274.679 81.8117C274.262 82.9367 273.663 83.9159 272.887 84.7492C272.122 85.5826 271.205 86.2388 270.137 86.7076C269.065 87.1659 267.893 87.3951 266.617 87.3951C265.351 87.3951 264.179 87.1711 263.096 86.7284C262.023 86.2857 261.085 85.6659 260.283 84.8742C259.476 84.0721 258.851 83.1242 258.408 82.0409C257.976 80.9471 257.762 79.7649 257.762 78.4992C257.762 77.2076 257.976 76.0201 258.408 74.9367C258.835 73.8534 259.45 72.9107 260.242 72.1034C261.033 71.3013 261.96 70.6763 263.033 70.2284C264.117 69.7701 265.283 69.5409 266.533 69.5409C267.95 69.5409 269.262 69.8221 270.471 70.3742C271.679 70.9315 272.684 71.7024 273.492 72.6867C274.309 73.6607 274.851 74.7857 275.117 76.0617H271.304C270.94 75.1451 270.335 74.4159 269.492 73.8742C268.643 73.3326 267.684 73.0617 266.617 73.0617C265.601 73.0617 264.71 73.3013 263.95 73.7701C263.184 74.2284 262.58 74.8638 262.137 75.6659C261.705 76.4732 261.492 77.4159 261.492 78.4992C261.492 79.5565 261.7 80.4888 262.117 81.2909C262.544 82.0982 263.143 82.7284 263.908 83.1867C264.684 83.6451 265.585 83.8742 266.617 83.8742C267.71 83.8742 268.7 83.6034 269.575 83.0617C270.46 82.5201 271.059 81.8117 271.367 80.9367H266.242V78.0826Z" fill="#217BCF"/>
<path d="M288.424 83.5826H295.236V87.0201H284.716V69.9159H294.986V73.3326H288.424V76.7076H294.341V80.0617H288.424V83.5826Z" fill="#217BCF"/>
<path d="M310.541 87.3534C309.233 87.3534 308.082 87.1138 307.082 86.6451C306.093 86.1763 305.317 85.4992 304.749 84.6242C304.192 83.7492 303.916 82.7024 303.916 81.4784H307.666C307.666 82.3117 307.947 82.9315 308.52 83.3326C309.103 83.7232 309.77 83.9159 310.52 83.9159C310.989 83.9159 311.437 83.843 311.853 83.6867C312.27 83.5357 312.608 83.3065 312.874 82.9992C313.135 82.6971 313.27 82.3326 313.27 81.9159C313.27 81.4732 313.114 81.1242 312.812 80.8742C312.504 80.6242 312.088 80.4159 311.562 80.2492C311.046 80.0826 310.478 79.9315 309.853 79.7909C309.213 79.6399 308.562 79.4576 307.895 79.2492C307.228 79.0409 306.608 78.7649 306.041 78.4159C305.468 78.0565 305.01 77.5826 304.666 76.9992C304.332 76.4055 304.166 75.6451 304.166 74.7284C304.166 73.093 304.718 71.8274 305.832 70.9367C306.957 70.0513 308.468 69.6034 310.374 69.6034C312.332 69.6034 313.843 70.0982 314.916 71.0826C315.983 72.0721 316.52 73.4107 316.52 75.1034H312.853C312.853 74.369 312.588 73.8274 312.062 73.4784C311.546 73.119 310.947 72.9367 310.27 72.9367C309.671 72.9367 309.114 73.0721 308.603 73.3326C308.103 73.5982 307.853 74.0096 307.853 74.5617C307.853 74.968 307.999 75.2857 308.291 75.5201C308.593 75.7596 308.999 75.9524 309.499 76.1034C309.999 76.2596 310.546 76.4107 311.145 76.5617C311.796 76.7284 312.463 76.9263 313.145 77.1451C313.838 77.3534 314.478 77.6451 315.062 78.0201C315.645 78.3951 316.114 78.8951 316.478 79.5201C316.853 80.1346 317.041 80.9107 317.041 81.8534C317.041 83.1034 316.739 84.1399 316.145 84.9576C315.546 85.7649 314.76 86.369 313.791 86.7701C312.817 87.1555 311.733 87.3534 310.541 87.3534Z" fill="#217BCF"/>
<path d="M338.29 69.9159V73.3534H333.54V87.0201H329.811V73.3534H325.082V69.9159H338.29Z" fill="#217BCF"/>
<path d="M355.664 68.395C355.174 68.395 354.747 68.3012 354.372 68.1033C353.997 67.9106 353.664 67.7231 353.372 67.5408C353.164 67.4314 352.966 67.3273 352.789 67.2283C352.607 67.1346 352.44 67.0825 352.289 67.0825C352.049 67.0825 351.841 67.1814 351.664 67.3741C351.497 67.5564 351.414 67.7908 351.414 68.0825V68.27H349.435V67.9991C349.435 66.9991 349.685 66.2023 350.185 65.6033C350.685 64.9939 351.378 64.6866 352.268 64.6866C352.753 64.6866 353.164 64.77 353.497 64.9366C353.841 65.0929 354.143 65.2648 354.393 65.4575C354.586 65.6137 354.779 65.7439 354.977 65.8533C355.185 65.9679 355.398 66.02 355.622 66.02C355.883 66.02 356.091 65.9314 356.247 65.7491C356.414 65.5564 356.497 65.3064 356.497 64.9991V64.7908H358.477V65.0408C358.477 66.0721 358.227 66.8898 357.727 67.4991C357.237 68.0981 356.549 68.395 355.664 68.395ZM358.622 87.02L357.435 83.77H350.622L349.435 87.02H345.539L352.227 69.9158H355.727L362.643 87.02H358.622ZM354.018 74.4366L351.789 80.5408H356.268L354.018 74.4366Z" fill="#217BCF"/>
<path d="M379.416 87.3951C378.109 87.3951 376.9 87.1711 375.791 86.7284C374.692 86.2701 373.729 85.6399 372.895 84.8326C372.072 84.0305 371.437 83.0826 370.979 81.9992C370.531 80.9159 370.312 79.7388 370.312 78.4576C370.312 77.1971 370.531 76.0201 370.979 74.9367C371.437 73.8534 372.072 72.9107 372.895 72.1034C373.729 71.3013 374.692 70.6763 375.791 70.2284C376.9 69.7701 378.109 69.5409 379.416 69.5409C380.718 69.5409 381.926 69.7701 383.041 70.2284C384.15 70.6763 385.109 71.3013 385.916 72.1034C386.734 72.9107 387.374 73.8534 387.833 74.9367C388.291 76.0201 388.52 77.1971 388.52 78.4576C388.52 79.7388 388.291 80.9159 387.833 81.9992C387.374 83.0826 386.734 84.0305 385.916 84.8326C385.109 85.6399 384.15 86.2701 383.041 86.7284C381.926 87.1711 380.718 87.3951 379.416 87.3951ZM379.416 83.8951C380.442 83.8951 381.359 83.6607 382.166 83.1867C382.968 82.718 383.604 82.0774 384.062 81.2701C384.531 80.4524 384.77 79.5149 384.77 78.4576C384.77 77.4471 384.531 76.5305 384.062 75.7076C383.604 74.8742 382.968 74.2232 382.166 73.7492C381.359 73.2805 380.442 73.0409 379.416 73.0409C378.416 73.0409 377.505 73.2805 376.687 73.7492C375.864 74.2232 375.218 74.8742 374.749 75.7076C374.275 76.5305 374.041 77.4471 374.041 78.4576C374.041 79.4888 374.275 80.4159 374.749 81.2492C375.218 82.0721 375.864 82.718 376.687 83.1867C377.505 83.6607 378.416 83.8951 379.416 83.8951Z" fill="#217BCF"/>
<path d="M116.519 49.5536H104.478L88.3734 27.2827V49.5536H78.4775V3.9494H88.3734V24.9911L103.311 3.9494H114.832L99.2692 25.7827L116.519 49.5536Z" fill="#F8F8F8"/>
<path d="M149.301 14.3035H156.405V49.491H148.905L148.134 46.366C146.603 47.6733 144.874 48.6942 142.947 49.4285C141.015 50.1629 138.936 50.5327 136.718 50.5327C133.202 50.5327 130.056 49.7202 127.28 48.0952C124.499 46.4598 122.306 44.241 120.697 41.4494C119.082 38.6473 118.28 35.465 118.28 31.9077C118.28 28.3817 119.082 25.2202 120.697 22.4285C122.306 19.6265 124.499 17.4233 127.28 15.8244C130.056 14.215 133.202 13.4077 136.718 13.4077C138.978 13.4077 141.082 13.7931 143.03 14.5535C144.988 15.3035 146.728 16.3556 148.259 17.6994L149.301 14.3035ZM137.509 41.5327C139.327 41.5327 140.968 41.1265 142.426 40.3035C143.884 39.4858 145.02 38.3452 145.843 36.8869C146.676 35.4285 147.093 33.7723 147.093 31.9077C147.093 30.0744 146.676 28.439 145.843 26.991C145.02 25.5327 143.884 24.3817 142.426 23.5327C140.968 22.689 139.327 22.2619 137.509 22.2619C135.634 22.2619 133.978 22.689 132.551 23.5327C131.119 24.3817 129.988 25.5327 129.155 26.991C128.332 28.439 127.926 30.0744 127.926 31.9077C127.926 33.7723 128.332 35.4181 129.155 36.8452C129.988 38.2775 131.119 39.4181 132.551 40.2619C133.978 41.1108 135.634 41.5327 137.509 41.5327Z" fill="#F8F8F8"/>
<path d="M165.527 49.5536V1.67859H175.027V49.5536H165.527Z" fill="#F8F8F8"/>
<path d="M212.89 14.3035H219.994V49.491H212.494L211.723 46.366C210.192 47.6733 208.463 48.6942 206.536 49.4285C204.603 50.1629 202.525 50.5327 200.307 50.5327C196.791 50.5327 193.645 49.7202 190.869 48.0952C188.088 46.4598 185.895 44.241 184.286 41.4494C182.671 38.6473 181.869 35.465 181.869 31.9077C181.869 28.3817 182.671 25.2202 184.286 22.4285C185.895 19.6265 188.088 17.4233 190.869 15.8244C193.645 14.215 196.791 13.4077 200.307 13.4077C202.567 13.4077 204.671 13.7931 206.619 14.5535C208.577 15.3035 210.317 16.3556 211.848 17.6994L212.89 14.3035ZM201.098 41.5327C202.916 41.5327 204.557 41.1265 206.015 40.3035C207.473 39.4858 208.609 38.3452 209.432 36.8869C210.265 35.4285 210.682 33.7723 210.682 31.9077C210.682 30.0744 210.265 28.439 209.432 26.991C208.609 25.5327 207.473 24.3817 206.015 23.5327C204.557 22.689 202.916 22.2619 201.098 22.2619C199.223 22.2619 197.567 22.689 196.14 23.5327C194.708 24.3817 193.577 25.5327 192.744 26.991C191.921 28.439 191.515 30.0744 191.515 31.9077C191.515 33.7723 191.921 35.4181 192.744 36.8452C193.577 38.2775 194.708 39.4181 196.14 40.2619C197.567 41.1108 199.223 41.5327 201.098 41.5327Z" fill="#F8F8F8"/>
<path d="M263.574 35.6785C263.059 38.5015 262.017 40.9858 260.449 43.1369C258.876 45.2931 256.939 47.0067 254.637 48.2827C252.345 49.5588 249.767 50.3088 246.908 50.5327L246.574 51.6369C248.35 51.8556 249.783 52.4963 250.866 53.5535C251.949 54.6213 252.491 56.0015 252.491 57.6994C252.491 59.741 251.684 61.3765 250.074 62.616C248.475 63.8504 246.48 64.4702 244.095 64.4702H239.803V59.5952H243.699C244.434 59.5952 245.033 59.3921 245.491 58.991C245.949 58.6004 246.178 58.0796 246.178 57.4285C246.178 56.8296 245.949 56.3296 245.491 55.9285C245.033 55.5379 244.434 55.3452 243.699 55.3452H241.095L240.574 54.6994L241.887 50.1994C238.97 49.6838 236.371 48.564 234.095 46.8244C231.814 45.09 230.033 42.9442 228.741 40.3869C227.46 37.8192 226.824 34.965 226.824 31.8244C226.824 28.314 227.637 25.1681 229.262 22.3869C230.897 19.6108 233.126 17.4233 235.949 15.8244C238.767 14.215 241.96 13.4077 245.533 13.4077C248.574 13.4077 251.335 14.0067 253.824 15.1994C256.324 16.3973 258.408 18.0744 260.074 20.241C261.751 22.4077 262.876 24.9285 263.449 27.8035H253.991C253.21 26.0692 252.074 24.7202 250.574 23.7619C249.074 22.8035 247.371 22.3244 245.47 22.3244C243.772 22.3244 242.241 22.7515 240.866 23.5952C239.501 24.4442 238.428 25.5848 237.637 27.0119C236.855 28.4442 236.47 30.0744 236.47 31.9077C236.47 33.7306 236.855 35.366 237.637 36.8244C238.428 38.2723 239.501 39.4285 240.866 40.3035C242.241 41.1785 243.772 41.616 245.47 41.616C247.413 41.616 249.116 41.1108 250.574 40.0952C252.033 39.0692 253.168 37.5952 253.991 35.6785H263.574Z" fill="#F8F8F8"/>
<path d="M286.586 50.5327C282.93 50.5327 279.67 49.7202 276.795 48.0952C273.93 46.4598 271.675 44.241 270.024 41.4494C268.367 38.6473 267.545 35.4858 267.545 31.9702C267.545 28.4025 268.367 25.2202 270.024 22.4285C271.675 19.6265 273.93 17.4233 276.795 15.8244C279.67 14.215 282.93 13.4077 286.586 13.4077C290.18 13.4077 293.409 14.215 296.274 15.8244C299.149 17.4233 301.404 19.6265 303.045 22.4285C304.696 25.2202 305.524 28.4025 305.524 31.9702C305.524 35.4858 304.696 38.6473 303.045 41.4494C301.404 44.241 299.149 46.4598 296.274 48.0952C293.409 49.7202 290.18 50.5327 286.586 50.5327ZM286.586 41.616C289.321 41.616 291.555 40.7306 293.295 38.9494C295.029 37.1577 295.899 34.8348 295.899 31.9702C295.899 29.0952 295.029 26.7723 293.295 24.991C291.555 23.215 289.321 22.3244 286.586 22.3244C283.795 22.3244 281.529 23.215 279.795 24.991C278.055 26.7723 277.19 29.0952 277.19 31.9702C277.19 34.8348 278.055 37.1577 279.795 38.9494C281.529 40.7306 283.795 41.616 286.586 41.616Z" fill="#F8F8F8"/>
<path d="M341.702 50.5327C338.437 50.5327 335.536 49.8296 332.994 48.4286C330.452 47.0119 328.463 45.0692 327.036 42.5952C325.603 40.1109 324.89 37.2411 324.89 33.9911V32.3452H334.661V33.4702C334.661 35.8036 335.296 37.6786 336.577 39.0952C337.853 40.5119 339.562 41.2202 341.702 41.2202C343.702 41.2202 345.327 40.5275 346.577 39.1369C347.838 37.7515 348.473 35.8609 348.473 33.4702V3.9494H358.244V33.9911C358.244 37.2411 357.546 40.1109 356.161 42.5952C354.77 45.0692 352.833 47.0119 350.348 48.4286C347.874 49.8296 344.994 50.5327 341.702 50.5327Z" fill="#F8F8F8"/>
<path d="M385.609 14.1786H388.734V23.1786H384.63C381.932 23.1786 380.01 23.814 378.859 25.0744C377.703 26.3244 377.13 28.3817 377.13 31.2411V49.5536H367.63V14.3661H373.755L375.443 18.6786C377.828 15.6786 381.219 14.1786 385.609 14.1786Z" fill="#F8F8F8"/>
<mask id="mask0_272_2461" style="mask-type:luminance" maskUnits="userSpaceOnUse" x="12" y="25" width="30" height="27">
<path d="M12 25.3334H41.3333V52H12V25.3334Z" fill="white"/>
</mask>
<g mask="url(#mask0_272_2461)">
<mask id="mask1_272_2461" style="mask-type:luminance" maskUnits="userSpaceOnUse" x="0" y="-7" width="73" height="72">
<path d="M59.6042 64.9896L0.901062 52.5782L13.3125 -6.12494L72.0156 6.28652L59.6042 64.9896Z" fill="white"/>
</mask>
<g mask="url(#mask1_272_2461)">
<mask id="mask2_272_2461" style="mask-type:luminance" maskUnits="userSpaceOnUse" x="0" y="-7" width="73" height="72">
<path d="M59.6042 64.9896L0.901062 52.5782L13.3125 -6.12494L72.0156 6.28652L59.6042 64.9896Z" fill="white"/>
</mask>
<g mask="url(#mask2_272_2461)">
<path d="M40.625 26.6771C40.625 26.6719 40.625 26.6719 40.625 26.6719C40.3907 26.3178 39.9532 25.9792 39.3594 25.9844C39.2709 25.9844 16.3698 27.5001 14.4948 27.6251C14.4011 27.6303 14.3125 27.6407 14.224 27.6719C13.5782 27.8646 13.2605 28.3959 13.1771 28.8542C13.1042 29.2657 13.1875 29.7865 13.5782 30.1876C13.6667 30.2761 23.6719 37.7084 23.6719 37.7084V37.7136C23.6719 37.7136 26.4219 49.8699 26.4688 49.9844C26.6719 50.5053 27.1198 50.7917 27.5209 50.8907C27.974 51.0001 28.5938 50.9271 29.0261 50.4167C29.0886 50.349 29.1407 50.2657 29.1823 50.1824C30.0521 48.5209 40.7136 28.1928 40.7448 28.1146C40.9896 27.5782 40.8594 27.0313 40.625 26.6771Z" fill="#005BBC"/>
</g>
</g>
</g>
<mask id="mask3_272_2461" style="mask-type:luminance" maskUnits="userSpaceOnUse" x="14" y="38" width="8" height="6">
<path d="M14.6666 38.6666H21.3333V44H14.6666V38.6666Z" fill="white"/>
</mask>
<g mask="url(#mask3_272_2461)">
<mask id="mask4_272_2461" style="mask-type:luminance" maskUnits="userSpaceOnUse" x="0" y="-7" width="73" height="72">
<path d="M59.6041 64.9896L0.901001 52.5781L13.3125 -6.125L72.0156 6.28646L59.6041 64.9896Z" fill="white"/>
</mask>
<g mask="url(#mask4_272_2461)">
<mask id="mask5_272_2461" style="mask-type:luminance" maskUnits="userSpaceOnUse" x="0" y="-7" width="73" height="72">
<path d="M59.6041 64.9896L0.901001 52.5781L13.3125 -6.125L72.0156 6.28646L59.6041 64.9896Z" fill="white"/>
</mask>
<g mask="url(#mask5_272_2461)">
<path d="M18.3385 39.3646L18.1406 39.4948C18.1041 39.5157 18.0729 39.5365 18.0416 39.5625C18.0052 39.5782 17.9739 39.599 17.9374 39.625L17.7395 39.7552C17.7083 39.7761 17.677 39.7969 17.6458 39.8229C17.6093 39.8386 17.5729 39.8594 17.5416 39.8854L17.3437 40.0157C17.3072 40.0365 17.276 40.0573 17.2447 40.0834C17.2083 40.099 17.177 40.1198 17.1406 40.1407L16.9427 40.2709C16.9062 40.2969 16.8749 40.3177 16.8437 40.3438C16.8072 40.3594 16.776 40.3802 16.7395 40.4011L16.5416 40.5313C15.8385 40.9896 15.6354 41.9375 16.0937 42.6407C16.5572 43.349 17.4999 43.5469 18.2083 43.0886L18.4062 42.9584C18.4374 42.9375 18.4739 42.9115 18.5052 42.8907C18.5364 42.8698 18.5729 42.849 18.6041 42.8282L18.8072 42.6979C18.8385 42.6771 18.8697 42.6563 18.901 42.6302C18.9374 42.6094 18.9687 42.5886 19.0052 42.5677L19.2031 42.4375C19.2395 42.4167 19.2708 42.3959 19.302 42.3698C19.3385 42.349 19.3697 42.3282 19.4062 42.3073L19.6041 42.1771C19.6354 42.1563 19.6718 42.1354 19.7031 42.1094C19.7343 42.0886 19.7708 42.0677 19.802 42.0469L20.0052 41.9167C20.7083 41.4584 20.9114 40.5157 20.4479 39.8073C19.9895 39.1042 19.0468 38.9063 18.3385 39.3646Z" fill="#005BBC"/>
</g>
</g>
</g>
<mask id="mask6_272_2461" style="mask-type:luminance" maskUnits="userSpaceOnUse" x="8" y="42" width="7" height="8">
<path d="M8 42.6666H14.6667V49.3333H8V42.6666Z" fill="white"/>
</mask>
<g mask="url(#mask6_272_2461)">
<mask id="mask7_272_2461" style="mask-type:luminance" maskUnits="userSpaceOnUse" x="0" y="-7" width="73" height="72">
<path d="M59.6042 64.9896L0.901062 52.5781L13.3125 -6.125L72.0156 6.28646L59.6042 64.9896Z" fill="white"/>
</mask>
<g mask="url(#mask7_272_2461)">
<mask id="mask8_272_2461" style="mask-type:luminance" maskUnits="userSpaceOnUse" x="0" y="-7" width="73" height="72">
<path d="M59.6042 64.9896L0.901062 52.5781L13.3125 -6.125L72.0156 6.28646L59.6042 64.9896Z" fill="white"/>
</mask>
<g mask="url(#mask8_272_2461)">
<path d="M10.9271 47.8281L11.125 47.6979C11.1563 47.6771 11.1927 47.651 11.224 47.6302C11.2604 47.6094 11.2917 47.5885 11.3281 47.5677L11.5261 47.4375C11.5573 47.4167 11.5886 47.3958 11.625 47.3698C11.6563 47.349 11.6927 47.3281 11.724 47.3073L11.9219 47.1771C11.9584 47.1563 11.9896 47.1354 12.0209 47.1094C12.0573 47.0885 12.0886 47.0677 12.125 47.0469L12.3229 46.9167C12.3542 46.8958 12.3906 46.875 12.4219 46.849C12.4531 46.8281 12.4896 46.8073 12.5209 46.7865L12.724 46.6563C13.4271 46.1979 13.6302 45.2552 13.1667 44.5469C12.7084 43.8438 11.7656 43.6458 11.0573 44.1042L10.8594 44.2344C10.8229 44.2552 10.7917 44.276 10.7604 44.3021C10.7292 44.3177 10.6927 44.3385 10.6615 44.3646L10.4584 44.4948C10.4271 44.5156 10.3959 44.5365 10.3646 44.5625C10.3281 44.5781 10.2917 44.599 10.2604 44.625L10.0625 44.7552C10.0261 44.7708 9.99481 44.7969 9.96356 44.8229C9.9271 44.8385 9.89585 44.8594 9.85939 44.8802L9.66148 45.0104C9.62502 45.0313 9.59377 45.0573 9.56252 45.0833C9.53127 45.099 9.49481 45.1198 9.46356 45.1406L9.26564 45.2708C8.55731 45.7292 8.35939 46.6719 8.81773 47.3802C9.27606 48.0885 10.2188 48.2865 10.9271 47.8281Z" fill="#005BBC"/>
</g>
</g>
</g>
<mask id="mask9_272_2461" style="mask-type:luminance" maskUnits="userSpaceOnUse" x="0" y="48" width="7" height="6">
<path d="M0 48H6.66667V53.3333H0V48Z" fill="white"/>
</mask>
<g mask="url(#mask9_272_2461)">
<mask id="mask10_272_2461" style="mask-type:luminance" maskUnits="userSpaceOnUse" x="0" y="-7" width="73" height="72">
<path d="M59.6042 64.9896L0.901062 52.5781L13.3125 -6.125L72.0156 6.28646L59.6042 64.9896Z" fill="white"/>
</mask>
<g mask="url(#mask10_272_2461)">
<mask id="mask11_272_2461" style="mask-type:luminance" maskUnits="userSpaceOnUse" x="0" y="-7" width="73" height="72">
<path d="M59.6042 64.9896L0.901062 52.5781L13.3125 -6.125L72.0156 6.28646L59.6042 64.9896Z" fill="white"/>
</mask>
<g mask="url(#mask11_272_2461)">
<path d="M1.53648 52.1198C1.99481 52.8281 2.93752 53.026 3.64585 52.5677L3.84377 52.4375C3.88023 52.4166 3.91148 52.3906 3.94273 52.3698C3.97919 52.3489 4.01043 52.3281 4.04689 52.3073L4.24481 52.1771C4.27606 52.1562 4.31252 52.1302 4.34377 52.1093C4.37502 52.0885 4.41148 52.0677 4.44273 52.0468L4.64585 51.9166C4.6771 51.8958 4.70835 51.8698 4.7396 51.8489C4.77606 51.8281 4.80731 51.8073 4.84377 51.7864L5.04169 51.6562C5.07814 51.6354 5.10939 51.6093 5.14064 51.5885C5.1771 51.5677 5.20835 51.5468 5.24481 51.526L5.44273 51.3958C6.15106 50.9375 6.34898 49.9896 5.88544 49.2864C5.4271 48.5833 4.48439 48.3802 3.78127 48.8385L3.57814 48.9687C3.54689 48.9948 3.51043 49.0156 3.48439 49.0364C3.44794 49.0573 3.41148 49.0781 3.38023 49.0989L3.18231 49.2343C3.14585 49.25 3.1146 49.276 3.08335 49.2968C3.04689 49.3177 3.01043 49.3385 2.97919 49.3646L2.78127 49.4896C2.74481 49.5104 2.71356 49.5364 2.68231 49.5625C2.65106 49.5781 2.6146 49.5989 2.58335 49.6198L2.38023 49.75C2.34898 49.7708 2.31252 49.7968 2.28127 49.8229C2.25002 49.8385 2.21356 49.8593 2.18231 49.8802L1.98439 50.0104C1.27606 50.4687 1.07814 51.4114 1.53648 52.1198Z" fill="#005BBC"/>
</g>
</g>
</g>
<mask id="mask12_272_2461" style="mask-type:luminance" maskUnits="userSpaceOnUse" x="13" y="0" width="55" height="55">
<path d="M13.3333 0H68V54.6667H13.3333V0Z" fill="white"/>
</mask>
<g mask="url(#mask12_272_2461)">
<mask id="mask13_272_2461" style="mask-type:luminance" maskUnits="userSpaceOnUse" x="0" y="-7" width="73" height="72">
<path d="M59.6041 64.9896L0.901001 52.5781L13.3125 -6.125L72.0156 6.28646L59.6041 64.9896Z" fill="white"/>
</mask>
<g mask="url(#mask13_272_2461)">
<mask id="mask14_272_2461" style="mask-type:luminance" maskUnits="userSpaceOnUse" x="0" y="-7" width="73" height="72">
<path d="M59.6041 64.9896L0.901001 52.5781L13.3125 -6.125L72.0156 6.28646L59.6041 64.9896Z" fill="white"/>
</mask>
<g mask="url(#mask14_272_2461)">
<path d="M14.2864 24.4218L14.8958 24.3854C17.1979 24.2291 19.2812 24.0937 21.1719 23.9687C21.2291 23.5729 21.3021 23.177 21.3854 22.7812C23.5989 12.302 33.9271 5.57808 44.4062 7.79162C54.8802 10.0104 61.6041 20.3385 59.3906 30.8125C57.1719 41.2916 46.8489 48.0156 36.3698 45.7968C35.9896 45.7187 35.6146 45.625 35.2448 45.526C34.2864 47.3593 33.2135 49.401 32.026 51.6718C31.9531 51.8073 31.8802 51.9323 31.8021 52.052C32.7969 52.3906 33.8177 52.6718 34.8698 52.8906C49.2604 55.9323 63.4375 46.7031 66.4791 32.3125C69.526 17.927 60.2969 3.74475 45.9062 0.703083C31.5156 -2.33858 17.3333 6.89058 14.2916 21.2812C14.0677 22.3489 13.9062 23.4166 13.8177 24.4791C13.9687 24.4531 14.125 24.4323 14.2864 24.4218Z" fill="#F8F8F8"/>
</g>
</g>
</g>
<mask id="mask15_272_2461" style="mask-type:luminance" maskUnits="userSpaceOnUse" x="28" y="13" width="26" height="27">
<path d="M28 13.3334H53.3333V40H28V13.3334Z" fill="white"/>
</mask>
<g mask="url(#mask15_272_2461)">
<mask id="mask16_272_2461" style="mask-type:luminance" maskUnits="userSpaceOnUse" x="0" y="-7" width="73" height="72">
<path d="M59.6042 64.9896L0.901062 52.5782L13.3125 -6.12494L72.0156 6.28652L59.6042 64.9896Z" fill="white"/>
</mask>
<g mask="url(#mask16_272_2461)">
<mask id="mask17_272_2461" style="mask-type:luminance" maskUnits="userSpaceOnUse" x="0" y="-7" width="73" height="72">
<path d="M59.6042 64.9896L0.901062 52.5782L13.3125 -6.12494L72.0156 6.28652L59.6042 64.9896Z" fill="white"/>
</mask>
<g mask="url(#mask17_272_2461)">
<path d="M42.4845 31.7136C41.7397 33.1303 40.5261 35.448 38.5313 39.2553C45.0626 40.2292 51.3282 35.948 52.7136 29.4011C54.1459 22.6094 49.7865 15.9115 42.9949 14.474C36.4324 13.0886 29.9584 17.1042 28.2292 23.5001C32.474 23.2188 35.0782 23.0469 36.6824 22.9428C37.922 21.7605 39.698 21.1876 41.4949 21.5678C44.3751 22.1771 46.2292 25.0157 45.6199 27.9011C45.2449 29.6719 44.0313 31.0521 42.4845 31.7136Z" fill="#F8F8F8"/>
</g>
</g>
</g>
</svg>
